# xmcd
#
# Track frame offsets:
#	150
#	12592
#	21695
#	35162
#	46490
#	58280
#	76872
#	86970
#	99332
#	109782
#	121157
#	132645
#	142067
#	154167
#	171342
#	184015
#	199757
#	209957
#	222620
#	231632
#	243042
#	255707
#	268207
#	281777
#	293157
#
# Disc length: 4144
#
# Revision: 2
# Processed by: cddbd v1.5.1PL0 Copyright (c) Steve Scherf et al.
# Submitted via: CDex 1.40Beta3
# Normalized: r1:DSETVAR1,TDELIM( - )
#
DISCID=9d102e19
DTITLE=Various Artist - COUNTRY CAPITAL
DYEAR=1900
DGENRE=Country
TTITLE0=BOBBY BARE - MUSIC CITY U.S.A
TTITLE1=GLEN CAMPBELL - BACK IN THE RACE
TTITLE2=GEORGE JONES - SEASONS OF MY HEART
TTITLE3=BUCK OWENS - ABOVE AND BEYOND
TTITLE4=FERLIN HUSKY - I WISHED A THOUSANDS TIMES
TTITLE5=ROY CLARK - MARY ANN REGRETS
TTITLE6=ROGER MILLER - MY PILLOW
TTITLE7=TOMMY OVERSTREET - ILL NEVER BREAK THESE CHAINS
TTITLE8=THE DILLARDS - REUBEN'S TRAIN
TTITLE9=PATSY CLINE - JUST OUT OF REACH (OF MY TWO OPEN ARMS)
TTITLE10=JORDANAIRES - RIBBON OF DARKENSS
TTITLE11=FARON YOUNG - HELLO WALLS
TTITLE12=DIANA TRASK - IT'S A MAN'S WORLD
TTITLE13=COWBOY COPAS - A PICTURE FROM LIFE'S OTHER SIDE
TTITLE14=RED SAVINE - A WOUND THAT TIME CAN'T ERASE
TTITLE15=CASH McCALL - ACROSS THE WIDE MISSOURI
TTITLE16=CLIFFORD JAMES - WHAT IS TRUTH
TTITLE17=SANFORD CLARK - THEY CALL ME COUNTRY
TTITLE18=ROGER MILLER - POOR LITTLE JOHN
TTITLE19=BOBBY BARE - THAT'S HOW I GOT TO MEMPHIS
TTITLE20=TOMMY OVERSTREET - ME AND YOU AND A DOG NAMED BOO
TTITLE21=LEE CONWAY - CITY BOY (COUNTRY BORN)
TTITLE22=JUSTIN TUBB - WALKIN' THE FLOOR OVER YOU
TTITLE23=HANK LOCKLIN - SEND ME THE PILLOW YOU DREAM ON
TTITLE24=ROY CLARK - FOR THE GOOD TIMES
EXTD=ID3G:   2
EXTT0=
EXTT1=
EXTT2=
EXTT3=
EXTT4=
EXTT5=
EXTT6=
EXTT7=
EXTT8=
EXTT9=
EXTT10=
EXTT11=
EXTT12=
EXTT13=
EXTT14=
EXTT15=
EXTT16=
EXTT17=
EXTT18=
EXTT19=
EXTT20=
EXTT21=
EXTT22=
EXTT23=
EXTT24=
PLAYORDER=
